<?xml version="1.0" encoding="utf-8"?>
<!-- Svg Vector Icons : http://www.onlinewebfonts.com/icon -->
<!DOCTYPE svg PUBLIC "-//W3C//DTD SVG 1.1//EN" "http://www.w3.org/Graphics/SVG/1.1/DTD/svg11.dtd">
<svg version="1.1" xmlns="http://www.w3.org/2000/svg" xmlns:xlink="http://www.w3.org/1999/xlink" x="0px" y="0px" viewBox="0 0 1000 1000" enable-background="new 0 0 1000 1000" xml:space="preserve">
<metadata> Svg Vector Icons : http://www.onlinewebfonts.com/icon </metadata>
<g><path d="M445.1,558.5V449.7c-68.5,6.1-141,28.1-217.6,66.1v104.7C304.8,584.6,377.3,563.9,445.1,558.5z M445.1,321.6V209.8c-65.1,2.7-137.6,26.4-217.6,71.2v107.8C308.9,346.7,381.4,324.3,445.1,321.6z M917.8,583.9V479.2c-89.5,44.1-162.3,57.6-218.6,40.7V392.8c-7.5-2-14.6-4.7-21.3-8.1c-2-1.4-8.5-4.7-19.3-10.2c-10.8-5.4-17.3-8.5-19.3-9.1s-8.1-3.7-18.3-9.1c-10.2-5.4-16.6-8.1-19.3-8.1s-8.8-2.7-18.3-8.1s-16.3-7.8-20.3-7.1c-4.1,0.7-10.8-0.7-20.3-4.1s-16.9-4.7-22.4-4.1s-12.9-0.3-22.4-3.1c-9.5-2.7-17.6-3-24.4-1c-8.8,0-18.3,0.7-28.5,2v126.1h11.2c38.6,0,74.9,5.4,108.8,16.3c33.9,10.8,71.5,26.4,112.8,46.8c6.8,3.4,13.9,6.1,21.3,8.1v106.7c16.3,6.1,33.5,9.1,51.8,9.1C796.5,635.7,852.1,618.5,917.8,583.9L917.8,583.9z M917.8,341.9V234.2C853.4,268.7,795.5,286,744,286c-16.9,0-31.9-1.4-44.7-4.1v110.8C755.5,409,828.4,392.1,917.8,341.9L917.8,341.9z M155.4,136.6c0,12.9-3.4,25.1-10.2,36.6c-6.8,11.5-15.6,20-26.4,25.4v718.7c0,5.4-1.7,9.8-5.1,13.2c-3.4,3.4-7.8,5.1-13.2,5.1H63.9c-4.7,0-9.1-1.7-13.2-5.1c-4.1-3.4-5.8-7.8-5.1-13.2V198.6c-10.8-6.1-19.3-14.6-25.4-25.4s-9.5-23-10.2-36.6c0-20.3,7.1-37.6,21.3-51.8c14.2-14.2,31.2-21,50.8-20.3c19.7,0.7,36.9,7.5,51.8,20.3C148.9,97.6,156.1,114.9,155.4,136.6z M990,173.2v432.1c0,14.9-6.8,25.8-20.3,32.5c-3.4,2-6.4,3.7-9.2,5.1c-82.7,44.1-152.5,66.1-209.4,66.1c-33.2,0-63-6.8-89.5-20.3l-16.3-7.1c-23.7-12.9-42.4-22-55.9-27.4c-13.6-5.4-30.8-10.8-51.8-16.3c-21-5.4-42.4-8.1-64-8.1c-38.6,0-83.4,8.1-134.2,24.4c-50.8,16.3-93.9,35.6-129.1,57.9c-6.1,3.4-12.5,5.1-19.3,5.1c-6.1,0-12.2-1.4-18.3-4.1c-11.5-7.5-17.3-18-17.3-31.5V260.6c0-13.6,5.8-24.1,17.3-31.5c12.9-8.1,27.8-16.3,44.7-24.4c16.9-8.1,38.3-18,64-29.5c25.8-11.5,54.6-21,86.4-28.5c31.9-7.5,61.3-10.8,88.4-10.2c42,0,81.7,5.8,118.9,17.3c37.3,11.5,76.6,27.8,117.9,48.8c14.2,7.5,31.2,11.2,50.8,11.2c46.1,0,104.7-21.3,175.9-64c8.1-4.1,13.9-7.1,17.3-9.1c11.5-6.1,23.4-5.8,35.6,1C984.2,149.1,990,159.6,990,173.2L990,173.2z"/></g>
</svg>